<svg xmlns="http://www.w3.org/2000/svg" viewBox="0 0 333334 266426" shape-rendering="geometricPrecision" text-rendering="geometricPrecision" image-rendering="optimizeQuality" fill-rule="evenodd" clip-rule="evenodd"><path d="M133221 95299c19528 13988 50830-1037 63155 23323 3266 6457 3974 15300 1029 22317-1185 2826-2938 5339-5309 7263-1051 850-2222 1603-3519 2244-16061 7978-32815-3184-41703-16657-8172-12400-11729-27879-13653-38489zM271282 0H19699C8865 0-1 8865-1 19700v211005c0 10834 8865 19700 19700 19700h196302l-17000-14473H19312c-1514 0-2856-581-3862-1588-1007-1014-1596-2356-1596-3862V55155h-82 262551v80469l14659 11870V19701C290982 8867 282116 1 271282 1zM38444 22145c-5376 0-9730 4354-9730 9730 0 5369 4362 9723 9730 9723 5376 0 9731-4354 9731-9723 0-5376-4355-9730-9731-9730zm65943 0c-5376 0-9730 4354-9730 9730 0 5369 4354 9723 9730 9723s9731-4354 9731-9723c0-5376-4355-9730-9731-9730zm-32972 0c-5376 0-9730 4354-9730 9730 0 5369 4354 9723 9730 9723s9731-4354 9731-9723c0-5376-4355-9730-9731-9730zm160884 180055c10886-8687 19327-18685 25061-30154l69977 73825c5279 5003 8284 9238 3848 16911-2207 2252-4541 3459-6987 3624-2446 164-5011-716-7695-2647l-84204-61559zm-36924-42822c4720-2535 11185-8761 12713-15576l43821 24046c-6316 12586-14369 23368-25426 31018-11520-15479-17992-24815-31108-39489z"/></svg>