<svg id="Capa_1" enable-background="new 0 0 512 512" height="512" viewBox="0 0 512 512" width="512" xmlns="http://www.w3.org/2000/svg"><g><path d="m343.354 116.723c-.001 0-.001 0 0 0-4.143 0-7.501 3.357-7.501 7.499v3.404l-40.381 16.796c-.49-3.668-3.623-6.5-7.425-6.5-.001 0-.001 0-.001 0-4.142 0-7.5 3.357-7.5 7.499v5.21l-31.455 13.083c-10.359-.001-68.203-.006-79.624-.007-.001 0-.001 0-.003 0-11.719 0-21.254 9.534-21.256 21.254v1.432l-7.497-.001v-.027c0-4.143-3.357-7.501-7.499-7.501-.001 0-.001 0-.001 0-4.142 0-7.5 3.357-7.5 7.499v.693c-16.034 3.137-28.552 17.303-28.554 34.762-.002 17.423 12.477 31.62 28.548 34.768v.691c0 4.143 3.357 7.501 7.499 7.501h.001c4.142 0 7.5-3.357 7.5-7.499v-.027l7.496.001v1.432c0 11.721 9.535 21.257 21.254 21.257h1.47l-.003 28.054c0 4.143 3.357 7.501 7.499 7.501h.001c4.142 0 7.5-3.357 7.5-7.499l.003-28.054 33.588.003-.002 21.948c0 .163-.096.313-.244.383l-10.288 4.82c-5.394 2.528-8.879 8.011-8.879 13.965l-.003 30.723c0 2.726-2.206 4.935-4.936 4.935h-4.307c-2.722 0-4.937-2.215-4.937-4.936l.002-13.801c0-4.143-3.357-7.5-7.5-7.5s-7.5 3.357-7.5 7.5l-.002 13.799c0 10.992 8.942 19.936 19.936 19.938h4.309c11.017 0 19.935-8.916 19.935-19.934l.003-30.723c0-.163.097-.313.244-.383l10.285-4.819c5.396-2.526 8.882-8.009 8.882-13.966l.002-21.948 14.566.001 31.455 13.09v5.208c0 4.143 3.357 7.501 7.499 7.501h.001c3.801 0 6.935-2.831 7.426-6.498l40.377 16.803v3.402c0 4.143 3.357 7.501 7.499 7.501h.001c4.142 0 7.5-3.357 7.5-7.499l.018-195.233c-.002-4.143-3.36-7.501-7.501-7.501zm-7.518 183.083-40.302-16.772.011-122.397 40.306-16.765zm-119.043-121.096-.001 9.643c0 2.652-2.158 4.81-4.811 4.81h-.001s0 0-.001 0l-18.531-.001c-2.658 0-4.811-2.151-4.811-4.811l.001-9.643zm-104.637 43.108c0-8.891 5.632-16.394 13.552-19.221l-.003 38.445c-7.939-2.836-13.55-10.349-13.549-19.224zm28.549 20.433.003-40.86h7.496c0 5.049-.003 30.525-.003 40.86zm22.495 16.435c.002-22.019.005-48.71.007-73.724 0-3.455 2.796-6.256 6.256-6.256h.001 4.175l-.001 9.642c-.002 10.923 8.885 19.811 19.81 19.812l18.531.001h.003c10.922-.001 19.809-8.886 19.811-19.809v-9.643l11.293.001c-.001 10.427-.006 75.99-.007 86.236l-73.624-.007c-3.449.002-6.255-2.804-6.255-6.253zm94.879 8.761c.001-10.332.007-80.814.008-91.231l22.457-9.341-.01 109.916z"/><path d="m407.345 214.32h-28.417c-4.143 0-7.5 3.357-7.5 7.5s3.357 7.5 7.5 7.5h28.417c4.143 0 7.5-3.357 7.5-7.5s-3.358-7.5-7.5-7.5z"/><path d="m370.402 182.28c1.919 0 3.839-.732 5.304-2.196l20.094-20.094c2.929-2.93 2.929-7.678 0-10.607-2.93-2.928-7.678-2.928-10.607 0l-20.094 20.094c-2.929 2.93-2.929 7.678 0 10.607 1.464 1.464 3.384 2.196 5.303 2.196z"/><path d="m375.161 263.331c-2.929-2.93-7.678-2.929-10.606-.001-2.93 2.929-2.93 7.678-.001 10.606l20.094 20.095c1.465 1.465 3.384 2.197 5.304 2.197 1.919 0 3.839-.732 5.303-2.196 2.93-2.929 2.93-7.678.001-10.606z"/><path d="m489.361 377.306h-10.9v-285.609c0-14.094-11.466-25.56-25.56-25.56h-307.727c-4.143 0-7.5 3.357-7.5 7.5s3.357 7.5 7.5 7.5h307.728c5.822 0 10.56 4.737 10.56 10.56v285.608h-15v-273.668c0-4.143-3.357-7.5-7.5-7.5h-369.922c-4.143 0-7.5 3.357-7.5 7.5v273.669h-15v-285.609c0-5.822 4.736-10.56 10.559-10.56h56.088c4.143 0 7.5-3.357 7.5-7.5s-3.357-7.5-7.5-7.5h-56.088c-14.093 0-25.559 11.466-25.559 25.56v285.608h-10.901c-12.484.001-22.639 10.156-22.639 22.639v23.28c0 12.482 10.155 22.638 22.639 22.638h375.314c4.143 0 7.5-3.357 7.5-7.5s-3.357-7.5-7.5-7.5h-375.314c-4.212 0-7.639-3.426-7.639-7.638v-23.28c0-4.212 3.427-7.639 7.639-7.639h177.249v10.876c0 8.619 7.012 15.632 15.631 15.632h80.963c8.619 0 15.632-7.013 15.632-15.632v-10.876h177.248c4.212 0 7.639 3.427 7.639 7.639v23.28c0 4.212-3.427 7.638-7.639 7.638h-61.422c-4.143 0-7.5 3.357-7.5 7.5s3.357 7.5 7.5 7.5h61.422c12.483 0 22.639-10.155 22.639-22.638v-23.28c-.001-12.483-10.156-22.638-22.64-22.638zm-192.248 25.876c0 .349-.283.632-.632.632h-80.963c-.348 0-.631-.283-.631-.632v-10.876h82.226zm-218.573-25.876v-266.169h354.921v266.169z"/></g></svg>