<svg xmlns="http://www.w3.org/2000/svg" viewBox="0 0 4132 2941" shape-rendering="geometricPrecision" text-rendering="geometricPrecision" image-rendering="optimizeQuality" fill-rule="evenodd" clip-rule="evenodd"><path d="M73 2941c-40 0-73-31-73-69s33-69 73-69h308V692c0-22 9-42 23-56 15-15 35-24 57-24h438c22 0 42 9 57 24s23 35 23 56v2111h326V1304c0-22 9-42 23-56 15-14 35-23 56-23h438c22 0 42 9 57 24s24 35 24 57v1499h326V82c0-22 9-42 23-56 15-15 35-23 57-23h438c22 0 42 9 56 24 15 15 24 35 24 57v2723h326V871c0-22 9-42 24-57s35-23 57-23h438c22 0 42 9 57 23 15 15 24 35 24 57v1936h308c40 0 73 31 73 69s-33 69-73 69H75zM833 759H527v2036h306V759zm924 612h-306v1424h306V1371zm924-1224h-306v2648h306V147zm924 787h-306v1861h306V934z" fill-rule="nonzero"/></svg>