<svg xmlns="http://www.w3.org/2000/svg" xmlns:xlink="http://www.w3.org/1999/xlink" viewBox="0 0 650 650"><defs><style>.cls-1{fill:url(#Безымянный_градиент_263);}.cls-2{fill:url(#Безымянный_градиент_170);}.cls-3{fill:#fff;}.cls-4{fill:none;stroke:#a19fa2;stroke-miterlimit:10;stroke-width:2.81px;}.cls-5{fill:url(#Безымянный_градиент_123);}.cls-6{fill:url(#Безымянный_градиент_123-2);}.cls-7{fill:url(#Безымянный_градиент_123-3);}.cls-8{fill:url(#Безымянный_градиент_123-4);}.cls-9{fill:#201f4f;}.cls-10{fill:url(#Безымянный_градиент_123-5);}.cls-11{fill:url(#Безымянный_градиент_123-6);}.cls-12{fill:#141330;}.cls-13{fill:#d5527e;}.cls-14{fill:url(#Безымянный_градиент_123-7);}.cls-15{fill:url(#Безымянный_градиент_170-2);}.cls-16{fill:url(#Безымянный_градиент_171);}.cls-17{fill:url(#Безымянный_градиент_171-2);}.cls-18{fill:url(#Безымянный_градиент_123-8);}.cls-19{fill:url(#Безымянный_градиент_48);}.cls-20{fill:url(#Безымянный_градиент_139);}.cls-21{fill:url(#Безымянный_градиент_123-9);}.cls-22{fill:url(#Безымянный_градиент_140);}.cls-23{fill:url(#Безымянный_градиент_48-2);}.cls-24{fill:url(#Безымянный_градиент_123-10);}.cls-25{fill:url(#Безымянный_градиент_138);}.cls-26{fill:url(#Безымянный_градиент_123-11);}.cls-27{fill:url(#Безымянный_градиент_48-3);}.cls-28{fill:url(#Безымянный_градиент_139-2);}.cls-29{fill:url(#Безымянный_градиент_157);}.cls-30{fill:url(#Безымянный_градиент_160);}.cls-31{fill:url(#Безымянный_градиент_162);}.cls-32{fill:url(#Безымянный_градиент_157-2);}.cls-33{fill:url(#Безымянный_градиент_163);}.cls-34{fill:url(#Безымянный_градиент_157-3);}.cls-35{fill:url(#Безымянный_градиент_3);}.cls-36{fill:url(#Безымянный_градиент_157-4);}.cls-37{fill:url(#Безымянный_градиент_157-5);}.cls-38{fill:#a19fa2;}.cls-39{fill:url(#Безымянный_градиент_139-3);}</style><linearGradient id="Безымянный_градиент_263" x1="16.87" y1="326.1" x2="643.37" y2="326.1" gradientUnits="userSpaceOnUse"><stop offset="0" stop-color="#f0f2f5"/><stop offset="0.99" stop-color="#f5f7f8"/></linearGradient><linearGradient id="Безымянный_градиент_170" x1="96.88" y1="201.28" x2="412.17" y2="201.28" gradientUnits="userSpaceOnUse"><stop offset="0.01" stop-color="#bbbfd9"/><stop offset="1" stop-color="#d6dbf8"/></linearGradient><linearGradient id="Безымянный_градиент_123" x1="443.57" y1="236.84" x2="481.31" y2="236.84" gradientUnits="userSpaceOnUse"><stop offset="0" stop-color="#753200"/><stop offset="1" stop-color="#a04400"/></linearGradient><linearGradient id="Безымянный_градиент_123-2" x1="448.11" y1="225.99" x2="457.05" y2="225.99" xlink:href="#Безымянный_градиент_123"/><linearGradient id="Безымянный_градиент_123-3" x1="451.95" y1="223.65" x2="459.05" y2="223.65" xlink:href="#Безымянный_градиент_123"/><linearGradient id="Безымянный_градиент_123-4" x1="456.02" y1="227.1" x2="460.58" y2="227.1" xlink:href="#Безымянный_градиент_123"/><linearGradient id="Безымянный_градиент_123-5" x1="466.26" y1="444.35" x2="507.71" y2="444.35" xlink:href="#Безымянный_градиент_123"/><linearGradient id="Безымянный_градиент_123-6" x1="446.73" y1="518.59" x2="481.1" y2="518.59" xlink:href="#Безымянный_градиент_123"/><linearGradient id="Безымянный_градиент_123-7" x1="445" y1="312.71" x2="506.75" y2="312.71" xlink:href="#Безымянный_градиент_123"/><linearGradient id="Безымянный_градиент_170-2" x1="489.27" y1="372.31" x2="587.41" y2="372.31" xlink:href="#Безымянный_градиент_170"/><linearGradient id="Безымянный_градиент_171" x1="500.13" y1="249.31" x2="535.42" y2="249.31" gradientUnits="userSpaceOnUse"><stop offset="0" stop-color="#d5527e"/><stop offset="1" stop-color="#ff6297"/></linearGradient><linearGradient id="Безымянный_градиент_171-2" x1="506.75" y1="269.92" x2="555.72" y2="269.92" xlink:href="#Безымянный_градиент_171"/><linearGradient id="Безымянный_градиент_123-8" x1="-2891.49" y1="157.99" x2="-2823.98" y2="126.74" gradientTransform="matrix(-1, 0, 0, 1, -2314.35, 0)" xlink:href="#Безымянный_градиент_123"/><linearGradient id="Безымянный_градиент_48" x1="-2039.99" y1="258.19" x2="-2064.07" y2="281.83" gradientTransform="translate(2595 356.75) rotate(12.28)" gradientUnits="userSpaceOnUse"><stop offset="0" stop-color="#a04400"/><stop offset="1" stop-color="#753200"/></linearGradient><linearGradient id="Безымянный_градиент_139" x1="481.13" y1="150.18" x2="581.94" y2="150.18" gradientUnits="userSpaceOnUse"><stop offset="0" stop-color="#201f4f"/><stop offset="0.26" stop-color="#27275a"/><stop offset="0.72" stop-color="#393c76"/><stop offset="1" stop-color="#464b8b"/></linearGradient><linearGradient id="Безымянный_градиент_123-9" x1="-2812.08" y1="177.86" x2="-2868.86" y2="165.21" gradientTransform="matrix(-1, 0, 0, 1, -2314.35, 0)" xlink:href="#Безымянный_градиент_123"/><linearGradient id="Безымянный_градиент_140" x1="-2827.59" y1="140.46" x2="-2859.49" y2="155.63" gradientTransform="matrix(-1, 0, 0, 1, -2314.35, 0)" gradientUnits="userSpaceOnUse"><stop offset="0.1" stop-color="#753200"/><stop offset="0.48" stop-color="#8a3b00" stop-opacity="0.52"/><stop offset="0.82" stop-color="#9a4100" stop-opacity="0.14"/><stop offset="1" stop-color="#a04400" stop-opacity="0"/></linearGradient><linearGradient id="Безымянный_градиент_48-2" x1="-2865.83" y1="175.11" x2="-2836.39" y2="191.47" gradientTransform="matrix(-1, 0, 0, 1, -2314.35, 0)" xlink:href="#Безымянный_градиент_48"/><linearGradient id="Безымянный_градиент_123-10" x1="-2040.04" y1="241.37" x2="-2043.15" y2="244.43" gradientTransform="translate(2595 356.75) rotate(12.28)" xlink:href="#Безымянный_градиент_123"/><linearGradient id="Безымянный_градиент_138" x1="83.39" y1="196.52" x2="98.79" y2="112.16" gradientUnits="userSpaceOnUse"><stop offset="0.38" stop-color="#201f4f"/><stop offset="0.54" stop-color="#27275a"/><stop offset="0.83" stop-color="#393c76"/><stop offset="1" stop-color="#464b8b"/></linearGradient><linearGradient id="Безымянный_градиент_123-11" x1="38.04" y1="137.59" x2="107.75" y2="105.32" xlink:href="#Безымянный_градиент_123"/><linearGradient id="Безымянный_градиент_48-3" x1="-4907.7" y1="862.04" x2="-4932.56" y2="886.45" gradientTransform="matrix(-0.98, 0.21, 0.21, 0.98, -4909.34, 356.75)" xlink:href="#Безымянный_градиент_48"/><linearGradient id="Безымянный_градиент_139-2" x1="34.2" y1="148.32" x2="140.7" y2="148.32" xlink:href="#Безымянный_градиент_139"/><linearGradient id="Безымянный_градиент_157" x1="122.18" y1="178.76" x2="57.13" y2="164.27" gradientUnits="userSpaceOnUse"><stop offset="0" stop-color="#a96e46"/><stop offset="1" stop-color="#ffd0b9"/></linearGradient><linearGradient id="Безымянный_градиент_160" x1="104.03" y1="119.49" x2="71.09" y2="135.15" gradientUnits="userSpaceOnUse"><stop offset="0.1" stop-color="#ad724b"/><stop offset="0.29" stop-color="#aa6739" stop-opacity="0.76"/><stop offset="0.63" stop-color="#a5541a" stop-opacity="0.35"/><stop offset="0.87" stop-color="#a14907" stop-opacity="0.1"/><stop offset="1" stop-color="#a04400" stop-opacity="0"/></linearGradient><linearGradient id="Безымянный_градиент_162" x1="64.96" y1="154.81" x2="94.23" y2="171.07" gradientUnits="userSpaceOnUse"><stop offset="0" stop-color="#a96e46"/><stop offset="1" stop-color="#ffd0b9" stop-opacity="0"/></linearGradient><linearGradient id="Безымянный_градиент_157-2" x1="-4907.75" y1="844.68" x2="-4910.96" y2="847.83" gradientTransform="matrix(-0.98, 0.21, 0.21, 0.98, -4909.34, 356.75)" xlink:href="#Безымянный_градиент_157"/><linearGradient id="Безымянный_градиент_163" x1="53.4" y1="555.24" x2="50.37" y2="513.17" gradientUnits="userSpaceOnUse"><stop offset="0" stop-color="#ffd0b9"/><stop offset="1" stop-color="#a96e46"/></linearGradient><linearGradient id="Безымянный_градиент_157-3" x1="109.61" y1="511.14" x2="116.67" y2="557.25" xlink:href="#Безымянный_градиент_157"/><linearGradient id="Безымянный_градиент_3" x1="8.9" y1="395.57" x2="144.21" y2="395.57" gradientUnits="userSpaceOnUse"><stop offset="0.09" stop-color="#d9d9d9"/><stop offset="0.12" stop-color="#d6d6d6"/><stop offset="0.7" stop-color="#aeaeae"/><stop offset="1" stop-color="#9f9f9f"/></linearGradient><linearGradient id="Безымянный_градиент_157-4" x1="162.53" y1="231.11" x2="285.54" y2="231.11" xlink:href="#Безымянный_градиент_157"/><linearGradient id="Безымянный_градиент_157-5" x1="28.31" y1="312.76" x2="49.18" y2="312.76" xlink:href="#Безымянный_градиент_157"/><linearGradient id="Безымянный_градиент_139-3" x1="61.88" y1="206.74" x2="104.1" y2="206.74" xlink:href="#Безымянный_градиент_139"/></defs><title>1</title><g id="Слой_3" data-name="Слой 3"><path class="cls-1" d="M622,338.59C567,226.11,409.61,61.38,205.14,61c-213.36-.44-234,211.17-119,270S33,463.08,153.19,536.75c121.66,74.56,381.67,67.56,445.67,9.56S645.75,387.18,622,338.59Z"/><rect class="cls-2" x="96.88" y="93.03" width="315.29" height="216.5" rx="11.45" ry="11.45"/><rect class="cls-3" x="105.85" y="102.32" width="297.35" height="197.93" rx="6.84" ry="6.84"/><path class="cls-4" d="M514.82,381.68l-29.9,168.6s5.23-17.54,53.42-19,69.69,2.11,74.61,13-37.12,28.49-84,21.81"/><line class="cls-4" x1="536.97" y1="381.68" x2="531.82" y2="566.11"/><line class="cls-4" x1="559.13" y1="381.68" x2="604.88" y2="536.36"/><line class="cls-4" x1="545.77" y1="381.68" x2="587.41" y2="533.05"/><path class="cls-4" d="M492.61,457.37s-8.4,23.66,54.56,17.51"/><path class="cls-5" d="M481.31,249.4l-6.14,7.28s-6.42-6.68-8.62-8.26-14-6.08-14-6.08-6.79-10.72-6.79-11.08-2.48-13.3-2.19-13.82,1.07-1,2.83,1c1.15,1.34,1.12,5,1.68,7.94a14.77,14.77,0,0,0,1,3.69c1.24,2.38,7.65,5.37,7.92,4.49s-7.65-9-6.6-9.58a1.8,1.8,0,0,1,1.51.25,3.66,3.66,0,0,1,.39.21,17.94,17.94,0,0,1,2.1,1.46c.53.42,1.08.87,1.58,1.28l.08.07,1.89,1.59c2.18,1.76,5.23,4,8.2,4.52a7.32,7.32,0,0,1,6.22,5.5C473,242.14,481.31,249.4,481.31,249.4Z"/><path class="cls-6" d="M457,234.6c-.27.89-6.68-2.11-7.92-4.49a14.77,14.77,0,0,1-1-3.69c.56-1.91,1.55-4.84,2.42-5.54,1.32-1.06,3.73-4,4.4-3.62s.1,3-1.41,4.15c-1.91,1.4-1.35,2.6-1.24,3.6l-.34.25a1.8,1.8,0,0,0-1.51-.25C449.39,225.55,457.31,233.73,457,234.6Z"/><path class="cls-7" d="M458.37,223.88c-1.24.79-3.93,3.07-3.93,3.07a17.94,17.94,0,0,0-2.1-1.46s-.11,0-.39-.21c0,0,5.87-5.11,6.42-4.91S459.59,223.08,458.37,223.88Z"/><path class="cls-8" d="M458,229.89l-1.89-1.59-.08-.07s3.54-3.91,3.93-3.91S461.91,226.51,458,229.89Z"/><path class="cls-9" d="M494,406.1l-10.55,11.26-1.77,72.46-3.87-.56-21.57-3.15-6-.87s-.52-79.31-.89-85.82,25-28.14,25-28.14Z"/><path class="cls-9" d="M566.28,344.17c-2.81,21.1-22,28.6-49.71,30s-43.61,0-43.61,0L488.9,411.7s-1.46.7-3.85,1.66a82.36,82.36,0,0,1-18.78,5.32,29.86,29.86,0,0,1-12.06-.41c-9.85-19.23-31.43-46.91-32.84-61s21.58-24.38,50.18-29.55S510,322.12,510,322.12l.48-14.53,40.8-7.58S569.09,323.06,566.28,344.17Z"/><path class="cls-10" d="M507.58,464.66c-.91,5.94-3.38,11-7.06,10.66a4,4,0,0,1-4-3.39.31.31,0,0,0-.06-.07c-.69-.86-5.43-13.07-7.19-16.78-1.86-3.9-5.82-9.84-7.45-16.2-1.28-5-12-14.86-15.55-20.2A82.36,82.36,0,0,0,485,413.36l7.78,15.83h2.46s2.7,1.69,5.66,10.76S508.51,458.7,507.58,464.66Z"/><path class="cls-9" d="M509.74,440.15S506.67,449.78,511,457s6.46,9.75,4.91,14.15-8.4,15.48-14.65,18.15-5.85-4.92-5.54-8.41c.18-2.1.52-6.12.76-9a.31.31,0,0,1,.06.07,4,4,0,0,0,4,3.39c3.69.3,6.15-4.73,7.06-10.66S503.9,449,500.94,440s-5.66-10.76-5.66-10.76h-.14a12,12,0,0,1,8-.62c5.12,1.53,7.48,6.46,10.86,8.92a123.57,123.57,0,0,1,9.33,8.2l-.82,2.66Z"/><path class="cls-11" d="M474.47,529.15c-2.21,3.62-11,16.24-14,18.91s-11.82,4.57-13.72,1.27c.75-.18,1.69-1.36,2.63-3.19A40.62,40.62,0,0,0,453,533.87c1.11-7.88,4.73-16.24,5.21-22.23.37-4.63-1.25-19.22-2-25.55l21.57,3.15c-.18,5.05-.49,13.91-.49,16.57s1.7,6.25,2.83,8.78h0a14.23,14.23,0,0,1,.93,2.49C481.41,518.93,476.68,525.52,474.47,529.15Z"/><path class="cls-9" d="M484.71,535.76c-.63,2.84-2.36,18.6-2.36,18.6h-2.84V536.24s-6.46,2.21-9.92,7.57-5.84,14.65-7.57,15.76-22.23,3.46-26,0,4.42-8.36,6.94-9.78c1.41-.79,4.19-2.39,6.42-3.66-.94,1.83-1.89,3-2.63,3.19,1.9,3.31,10.72,1.42,13.72-1.27s11.82-15.29,14-18.91,6.94-10.21,6.61-12a14.23,14.23,0,0,0-.93-2.49c.31.25,5.22,4.45,6,9.17C486.92,528.67,485.35,532.93,484.71,535.76Z"/><path class="cls-12" d="M503.58,129.57c21.42-18.74,47.17,4.57,56.17,27.55,10.5,26.8-33.29,39.53-33.91,40S514.13,192.4,507,195C482.2,178,485.27,147,503.58,129.57Z"/><path class="cls-13" d="M555.72,304.3l-5.38-14.83S563.71,246,560,226.16a57,57,0,0,0-16.71-31l-18.15,3.92a22.56,22.56,0,0,0-15.28,11.69c-5.56,10.75-14,27.27-14.88,30.88-1.41,5.45,12.23,69.69,12.23,69.69l4.59-.63"/><path class="cls-14" d="M504.14,292.74,479.29,315.5l-17,2.11a5,5,0,0,0-3.3,1.24c-2.53,2.21-7.58,6.62-7.85,6.79s-3.71,3.55-5.92,5.72a.76.76,0,0,0,.72,1.29c2.35-.59,5.71-1.78,7.37-4a11.15,11.15,0,0,1,6.86-4.4c.35,0,5.28-.94,4.92.47s-5.39,2.34-5.74,2.7-5.75,2.09-4.69,4.21,11.08-2.75,13.36-3.19,5.75,1,8.1.27,30.63-20.23,30.63-20.23Z"/><path class="cls-15" d="M489.27,374.79v6.9h98.14a18.76,18.76,0,0,0-18.76-18.76H554.7Z"/><polyline class="cls-16" points="535.42 219.41 535.05 220.18 510.71 271.71 500.13 266.94 511.42 279.21"/><path class="cls-17" d="M555.72,234.76s-28.12,66.73-38.91,68.14c-3.28,0-10.06-4.84-10.06-4.84a10,10,0,0,0,11,7C533.06,303.39,555.72,234.76,555.72,234.76Z"/><path class="cls-18" d="M497.07,139.24c.12,1.29.28,2.58.46,3.84,1.71-6.57,12.92-14,25.62-12.85,0,0,0,1.53,2.39,2s3.44-2.55,4,0,.53,6,3.44,6,4.78,1.86,5,3.71-4.67,8.53-2.2,10.17c2.83,1.87,4.87,8.89,4.87,8.89s2.2-16.28,11-6.75c.62,1.75,1.14,3.52,1.58,5.27.41-2.55-.25-4.54-1.66-5.81a5.31,5.31,0,0,0-1.33-.88,45.45,45.45,0,0,0,2.12-13.38,30.88,30.88,0,0,0-.92-7.73c-3.47-13.39-20.83-17.31-32.11-16.53S496,126.69,497.07,139.24Z"/><path class="cls-19" d="M546.26,176.27a39.19,39.19,0,0,1-28.14,17l.08-1.51.09-1.85c8.07-2.38,17.72-8,29-19.67l-.24.28a39.52,39.52,0,0,0-.69,5C546.31,175.75,546.28,176,546.26,176.27Z"/><path class="cls-20" d="M580.46,177c2.55-2.94,1.42-7.12-.55-9.83s2.71-10.69-.14-13.83c-6.07-6.67-2.91-9.41-3.29-11.83-1.49-9.58-6.05-6.31-5.73-11.11s-3.83-6.52-5.06-7.76c-3.19-3.24-3-4.71-3.9-8.2-1.56-6.25-11.79-6.22-17.63-6.34s-4.15-8.31-17.73-5c-2.17.53-5.1,5.12-12.33,3.62-7.62-1.57-16.26,5.7-15.75,9.32s-9.49,3.86-10.23,15.24c0,.3,0,.63-.07,1a21.16,21.16,0,0,1-3.07,9.19,20.24,20.24,0,0,0-1.7,3.59c-1.67,4.62,1.29,9.26,0,13.31s-3.58,10.09-1,16.07c3.67,8.51-6,11.28,4.1,19.68,6.44,5.36,17.54,5,22.45.43C497,178.27,511,151.7,512.5,146.07L540.72,164a23.73,23.73,0,0,0,1.08,28.49c2.4,3.16,6.22,6.6,14.88,4.71,7-1.53,7.35.81,16.19-4.9C586.44,183.53,577.91,180,580.46,177Z"/><path class="cls-21" d="M496.45,172.12c2.53,11,12.71,16,19.3,17.38.63.12,1.23.22,1.78.29.27,0,.52.07.76.09l-.09,1.86-.17,2.36-.14,2.1-4.69,19.68a2.77,2.77,0,0,0,4.27,2.91c9.41-6.57,26-15.74,26.23-19.06,0,0,1-5.06,2.3-20.44.08-1,.16-2,.25-3,0-.27.05-.53.07-.78,0-.52.12-1.14.19-1.77a23.16,23.16,0,0,1,.5-3.25,2.33,2.33,0,0,0,.24-.28c3.69-4.16,5.53-7.81,6-10.72-.25-1-.54-2-.85-3a7.82,7.82,0,0,0-3.27-4.42c-6.67-4.14-8.44,8.93-8.44,8.93s-22.56-4.67-28.13-31a11.09,11.09,0,0,0-8.6,1.89c-2.65,1.86-5.16,5.25-6.42,11.24h0c.51,3.59,1.12,7,.83,10.26C498,157.76,494.67,164.46,496.45,172.12Z"/><path class="cls-22" d="M503.95,131.84c3.46,9,9,17.41,19.86,23.61,12,6.85,16.88,5.51,16.88,5.51s-22.56-4.67-28.13-31A11.09,11.09,0,0,0,503.95,131.84Z"/><path class="cls-23" d="M518.2,191.73l-.17,2.36c8.53-1,18.76-4.53,28-14.81.08-1,.16-2,.25-3,0-.27.05-.53.07-.78,0-.52.12-1.14.19-1.77-11.28,9.11-20.87,13.87-29,16.05.27,0,.52.07.76.09Z"/><path class="cls-24" d="M545.77,157.81s2.61-3.08,4.1-.48-1.45,6.65-1.45,6.65Z"/><path class="cls-13" d="M538.62,211.45l-27.2,67.77-29.55-32.12-9.61,9.14s32.12,48.07,44.55,46.66,40.57-72.22,40.57-72.22"/><path class="cls-25" d="M114,108.25c-22.11-19.35-52.48,3.57-58,28.44-4.17,17.5,5.61,44.08-7.35,57.14a17,17,0,0,0-.62,2.84c0,1.21,56.38-13.42,63.7-10.74C137.39,168.38,132.91,126.29,114,108.25Z"/><path class="cls-26" d="M120.72,118.23c-.12,1.34-.29,2.66-.47,4-1.77-6.78-13.34-14.47-26.45-13.27,0,0,0,1.58-2.47,2s-3.56-2.64-4.11,0-.54,6.19-3.56,6.19-4.94,1.92-5.21,3.83,4.82,8.81,2.27,10.5c-2.92,1.93-5,9.18-5,9.18s-2.28-16.82-11.33-7c-.64,1.81-1.18,3.63-1.63,5.45-.42-2.64.26-4.69,1.71-6a5.48,5.48,0,0,1,1.37-.91,46.93,46.93,0,0,1-2.19-13.82,31.89,31.89,0,0,1,.95-8C68.16,96.6,86.08,92.55,97.73,93.36S121.84,105.27,120.72,118.23Z"/><path class="cls-27" d="M69.93,156.47A40.47,40.47,0,0,0,99,174l-.08-1.56-.1-1.91c-8.34-2.46-18.3-8.22-29.91-20.31l.25.28a40.81,40.81,0,0,1,.71,5.17C69.88,155.93,69.91,156.19,69.93,156.47Z"/><path class="cls-28" d="M138.73,168.29c7.79,26.86-9.9,37.72-12.52,40-5.3-8.12-7.85-18.95-16.27-22.21,15-16.51-3.6-54.77-5.15-60.79l-29.14,18.5s8.66,21.46-3.08,36.9C70.09,184,60.28,217.8,48,215.69c-10.72-1.85-12.72-13.07-13.24-15.39-4.71-21,20.81-26.31,9.54-55.07C37,126.55,54.85,79.06,90.41,80.91c2.3.12,5.11,3.57,12.73,3.74,20.83.46,26.88,26,26.91,26.38.28,3.37,10.64,24.81,5.93,43.53C134.12,162,137.94,165.56,138.73,168.29Z"/><path class="cls-29" d="M121.37,152.18c-2.61,11.34-13.12,16.5-19.93,17.95-.65.13-1.27.23-1.84.29-.28,0-.53.07-.78.09l.09,1.92.18,2.44.15,2.17,9.29,61.67a2.86,2.86,0,0,1-4.41,3c-9.72-6.78-31.34-57.6-31.53-61,0,0-1-5.22-2.38-21.11-.08-1-.17-2-.26-3.11,0-.28-.06-.54-.07-.8,0-.53-.12-1.18-.19-1.82a23.91,23.91,0,0,0-.52-3.35,2.4,2.4,0,0,1-.25-.29c-3.81-4.29-5.71-8.06-6.17-11.07.26-1.05.55-2.1.88-3.14A8.07,8.07,0,0,1,67,131.44c6.89-4.28,8.72,9.22,8.72,9.22s23.29-4.82,29.05-32a11.46,11.46,0,0,1,8.88,2c2.74,1.92,5.33,5.42,6.62,11.61h0c-.53,3.7-1.16,7.25-.86,10.6C119.79,137.35,123.2,144.27,121.37,152.18Z"/><path class="cls-30" d="M113.63,110.59c-3.58,9.31-9.26,18-20.51,24.38-12.44,7.08-17.43,5.69-17.43,5.69s23.29-4.82,29.05-32A11.46,11.46,0,0,1,113.63,110.59Z"/><path class="cls-31" d="M98.9,172.43s-19.19-2.24-28.71-12.85c-.08-1-.17-2-.26-3.11,0-.28-.06-.54-.07-.8,0-.53-.12-1.18-.19-1.82,11.65,9.41,21.55,14.32,29.93,16.58-.28,0-.53.07-.78.09Z"/><path class="cls-32" d="M70.44,137.41s-2.7-3.18-4.23-.49,1.49,6.87,1.49,6.87Z"/><path class="cls-33" d="M44.68,556.8c1,2,19-2.89,19-2.89l-.41-1.8-5.16-22.55a92.71,92.71,0,0,1,1.43-19.81c-5.34,2.86-16.95.8-16.95.8s1.08,7.6-.16,10.07a7.81,7.81,0,0,0-.57,1.71,35.32,35.32,0,0,0-.13,11.89c.47,2.54,1.14,10.1,1.82,15.82h0A35.89,35.89,0,0,0,44.68,556.8Z"/><path class="cls-9" d="M43.21,549h0c.11.4.21.75.3,1.08-.68-5.72-1.35-13.28-1.82-15.82a35.32,35.32,0,0,1,.13-11.89,9.24,9.24,0,0,0-2.54,6.79C39.42,533,41.8,543.84,43.21,549Z"/><path class="cls-9" d="M43.1,560.25c1.7,5.06,9.34,9.86,15.68,9,5.88-.84,10.18-9.32,4.45-17.09l.41,1.8s-18,4.84-19,2.89A35.89,35.89,0,0,1,43.51,550h0c-.09-.33-.84-6.51-1-6.91C42,546.81,42.15,557.43,43.1,560.25Z"/><path class="cls-34" d="M126.35,550.61c0,1.49-8,5.31-10,6s-6.07-2.16-5.9-7.64-9.63-27.54-10.13-28.87c-.37-1,.52-2,1-2.53.18-.18.31-.29.31-.29l-1.32-6.64,18.07-3.81s1.17,10.45,1.84,13.44.5,8.13,1.49,13.4c.91,4.78,4,13.6,4.56,16.33A3.38,3.38,0,0,1,126.35,550.61Z"/><path class="cls-9" d="M135.14,565.21c-2.66,1.82-14.77-1-20.58-2.33s-6.13-11-6.47-14.6c-.15-1.69-2.14-5.35-4.53-9.23h0c-1.54-2.51-3.24-5.11-4.72-7.32h0c-.6-.92-1.16-1.76-1.66-2.52a5.22,5.22,0,0,1-.7-4.2c1.11-4.23,3.12-6.37,4.84-7.45-.5.49-1.38,1.55-1,2.53.5,1.33,10.29,23.4,10.13,28.87s3.85,8.3,5.9,7.64,10-4.48,10-6a3.38,3.38,0,0,0-.09-.64C130.17,554.28,137.29,563.73,135.14,565.21Z"/><path class="cls-9" d="M104,552.93h-2.24l-2.95-21.2c1.48,2.21,3.18,4.81,4.72,7.32h0Z"/><path class="cls-35" d="M118.46,278.42C132.82,321.5,128.68,409,128.68,409l-8.43,104.42H97.82c-5.5-63.13,1.7-101.05,1.7-101.05L91.45,343,80.22,413.67,61.7,513.38H38.82c-.67-16.83,3.72-58.89,12.47-103.07-6.73-39-8.43-48.56-5.74-82.08s19.52-50.48,19.52-50.48Z"/><path class="cls-9" d="M71.12,178.14l17.5,13.46,15.48,43.75v49.81l-41.83-7.4-8.65-46.1L31.41,269l9.42,25.58L26,308,5.6,269.67S13.24,203,71.12,178.14Z"/><path class="cls-9" d="M100.06,176.12l-.4,2-1.84,9.2,6.28,48v49.81l16.84-7.4s-4.73-20.42-2.48-24.9S125.19,234,125.19,234L162,252.4l4-21.76s-42.09-24.82-45.23-40.08C104.1,179.45,100.06,176.12,100.06,176.12Z"/><path class="cls-36" d="M255,222.51c-.85-2.23-15.08,5-15.29,3.42-.13-.93,13.38-5.81,12.6-7.5s-7.81,1.84-12.41,3.17-9.89,1.22-11.31-.51,9.36-6.42,6.62-9.19c-1.4-1.41-17.67,11.88-17.67,11.88a15.52,15.52,0,0,0-2.77,3.58l-.11-.1c-7.74,5.55-49.07,5.76-49.07,5.76a45.35,45.35,0,0,0-3.05,16.45c22.41,4.72,56.5-9.93,56.5-9.93v0a72.51,72.51,0,0,0,13,.55,60.25,60.25,0,0,0,10.38-2.32c4.33-1.28,9.94-3,9.12-4.55s-7.92,1.92-8.54,1,12.72-5,12-6.86-13.48,4.12-13.81,3.25S255.66,224.26,255,222.51Z"/><path class="cls-37" d="M38.72,296.5,43.36,305l5.83,3-3.7,21s-7.85-4.83-9.86-8.87-1.18-5.72-1.18-5.72L28.31,306Z"/><path class="cls-9" d="M61.66,281.91s28.63,6.24,36.16,6.47,22.64-3.23,22.64-3.23l1.07,4.39s-12.6,3.68-22.92,3.56c-9.91-.11-39.79-7-39.79-7Z"/><polygon class="cls-38" points="72.37 282.66 75.06 283.33 72.37 290.06 69.57 289.39 72.37 282.66"/><polygon class="cls-38" points="111.16 286.36 113.66 285.15 115.89 292.05 113.31 293.33 111.16 286.36"/><polygon class="cls-39" points="71.12 178.14 61.88 178.14 62.61 189.44 77.03 194.32 75.69 203.07 104.1 235.35 88.62 191.6 71.12 178.14"/></g></svg>